<?xml version="1.0" encoding="UTF-8" standalone="no"?>
<!-- Created with Inkscape (http://www.inkscape.org/) -->

<svg
   xmlns:dc="http://purl.org/dc/elements/1.1/"
   xmlns:cc="http://creativecommons.org/ns#"
   xmlns:rdf="http://www.w3.org/1999/02/22-rdf-syntax-ns#"
   xmlns:svg="http://www.w3.org/2000/svg"
   xmlns="http://www.w3.org/2000/svg"
   xmlns:sodipodi="http://sodipodi.sourceforge.net/DTD/sodipodi-0.dtd"
   xmlns:inkscape="http://www.inkscape.org/namespaces/inkscape"
   width="131.15773mm"
   height="119.81845mm"
   viewBox="0 0 131.15773 119.81845"
   version="1.1"
   id="svg8"
   inkscape:version="0.92.3 (2405546, 2018-03-11)"
   sodipodi:docname="logo.svg"
   inkscape:export-filename="D:\Projects\slimr\data-raw\logo_base.png"
   inkscape:export-xdpi="299.96213"
   inkscape:export-ydpi="299.96213">
  <defs
     id="defs2" />
  <sodipodi:namedview
     id="base"
     pagecolor="#ffffff"
     bordercolor="#666666"
     borderopacity="1.0"
     inkscape:pageopacity="0.0"
     inkscape:pageshadow="2"
     inkscape:zoom="0.7"
     inkscape:cx="-117.29251"
     inkscape:cy="155.58667"
     inkscape:document-units="mm"
     inkscape:current-layer="layer1"
     showgrid="false"
     inkscape:window-width="1920"
     inkscape:window-height="1017"
     inkscape:window-x="1432"
     inkscape:window-y="1213"
     inkscape:window-maximized="1"
     fit-margin-top="0"
     fit-margin-left="0"
     fit-margin-right="0"
     fit-margin-bottom="0" />
  <metadata
     id="metadata5">
    <rdf:RDF>
      <cc:Work
         rdf:about="">
        <dc:format>image/svg+xml</dc:format>
        <dc:type
           rdf:resource="http://purl.org/dc/dcmitype/StillImage" />
        <dc:title></dc:title>
      </cc:Work>
    </rdf:RDF>
  </metadata>
  <g
     inkscape:label="Layer 1"
     inkscape:groupmode="layer"
     id="layer1"
     transform="translate(-40.443451,-37.330357)">
    <rect
       ry="0"
       y="37.330357"
       x="40.443451"
       height="119.81845"
       width="131.15773"
       id="rect4549"
       style="opacity:1;vector-effect:none;fill:#ffffff;fill-opacity:0.98333335;stroke:none;stroke-width:1;stroke-linecap:butt;stroke-linejoin:miter;stroke-miterlimit:4;stroke-dasharray:none;stroke-dashoffset:0;stroke-opacity:1" />
    <rect
       style="opacity:1;vector-effect:none;fill:#ffffff;fill-opacity:0.03333333;stroke:none;stroke-width:1;stroke-linecap:butt;stroke-linejoin:miter;stroke-miterlimit:4;stroke-dasharray:none;stroke-dashoffset:0;stroke-opacity:1"
       id="rect4547"
       width="131.15773"
       height="119.81845"
       x="40.443451"
       y="37.330357"
       ry="0" />
    <path
       inkscape:connector-curvature="0"
       id="path4526"
       style="font-style:normal;font-variant:normal;font-weight:normal;font-stretch:normal;font-size:medium;line-height:1.25;font-family:Roboto;-inkscape-font-specification:Roboto;letter-spacing:0px;word-spacing:0px;fill:#000000;fill-opacity:1;stroke:none;stroke-width:0.26458332"
       d="m 52.142873,133.41379 q 0,-5.63902 -0.927344,-8.72169 -0.911074,-3.15786 -3.20503,-5.41348 -2.277686,-2.2556 -3.628029,-5.41345 -1.334073,-3.15784 -1.984841,-7.5187 -0.634498,-4.36084 -0.634498,-10.375805 0,-9.99987 1.822149,-16.917072 1.838419,-6.917206 4.685526,-6.917206 2.993531,0 4.848219,7.142765 1.870956,7.142764 1.870956,18.270445 h -3.026069 q 0,-5.714217 -1.057497,-9.849501 -1.041228,-4.135286 -2.635609,-4.135286 -1.643188,0 -2.570531,3.308229 -0.927344,3.308227 -0.927344,8.646505 0,5.037526 0.862267,7.593886 0.862267,2.55636 3.107415,4.88715 2.261417,2.3308 3.660567,5.56383 1.39915,3.23306 2.066187,7.81946 0.683306,4.51122 0.683306,11.05249 0,10.90212 -1.887226,17.51856 -1.887226,6.54127 -4.897025,6.54127 -2.114995,0 -3.741914,-3.45859 -1.626919,-3.45861 -2.554263,-9.62394 -0.911074,-6.24052 -0.911074,-13.45847 h 3.0098 q 0.08135,6.99239 1.20392,11.12767 1.138843,4.0601 2.993531,4.0601 1.708264,0 2.733223,-3.15785 1.041228,-3.23304 1.041228,-8.57132 z" />
    <path
       inkscape:connector-curvature="0"
       id="path4528"
       style="font-style:normal;font-variant:normal;font-weight:normal;font-stretch:normal;font-size:medium;line-height:1.25;font-family:Roboto;-inkscape-font-specification:Roboto;letter-spacing:0px;word-spacing:0px;fill:#000000;fill-opacity:1;stroke:none;stroke-width:0.26458332"
       d="M 62.343653,156.78735 H 59.333854 V 41.110117 h 3.009799 z" />
    <path
       style="font-style:normal;font-variant:normal;font-weight:normal;font-stretch:normal;font-size:medium;line-height:1.25;font-family:Roboto;-inkscape-font-specification:Roboto;letter-spacing:0px;word-spacing:0px;fill:#000000;fill-opacity:1;stroke:none;stroke-width:0.26458335"
       d="M 70.413173,156.78735 H 67.40337 V 77.703882 h 3.009803 z"
       id="path4541"
       inkscape:connector-curvature="0" />
    <path
       style="font-style:normal;font-variant:normal;font-weight:normal;font-stretch:normal;font-size:medium;line-height:1.25;font-family:Roboto;-inkscape-font-specification:Roboto;letter-spacing:0px;word-spacing:0px;fill:#000000;fill-opacity:1;stroke:none;stroke-width:0.26458332"
       d="m 65.269455,60.677294 q 0,-2.746717 1.417851,-4.6389 1.47039,-1.892184 4.306104,-1.892184 2.835731,0 4.306108,1.892184 1.470389,1.892183 1.470389,4.6389 0,2.746716 -1.470389,4.577862 -1.470377,1.831145 -4.306108,1.831145 -2.835714,0 -4.306104,-1.831145 -1.417851,-1.831146 -1.417851,-4.577862 z"
       id="path4530"
       inkscape:connector-curvature="0" />
    <path
       inkscape:connector-curvature="0"
       id="path4532"
       style="font-style:normal;font-variant:normal;font-weight:normal;font-stretch:normal;font-size:medium;line-height:1.25;font-family:Roboto;-inkscape-font-specification:Roboto;letter-spacing:0px;word-spacing:0px;fill:#000000;fill-opacity:1;stroke:none;stroke-width:0.26458332"
       d="m 78.043423,79.047036 0.08134,8.579927 q 1.936036,-10.009914 5.222409,-10.009914 3.693105,0 5.027179,12.440892 0.878537,-5.576949 2.277687,-9.008921 1.415418,-3.431971 3.335187,-3.431971 5.791828,0 5.889438,26.955281 v 51.83704 H 96.86687 v -51.05056 q 0,-8.293928 -0.86227,-12.369393 -0.862264,-4.146964 -2.895912,-4.146964 -1.67573,0 -2.782033,4.432961 -1.106303,4.361461 -1.285265,11.797406 v 51.33655 h -3.026071 v -50.69305 q 0,-16.873867 -3.758182,-16.873867 -2.960989,0 -4.051029,11.082404 V 156.40937 H 75.196313 V 79.047036 Z" />
    <text
       xml:space="preserve"
       style="font-style:normal;font-weight:normal;font-size:10.58333302px;line-height:1.25;font-family:sans-serif;letter-spacing:0px;word-spacing:0px;fill:#000000;fill-opacity:1;stroke:none;stroke-width:0.26458332"
       x="106.58929"
       y="109.52381"
       id="text4524"><tspan
         sodipodi:role="line"
         id="tspan4522"
         x="106.58929"
         y="118.88758"
         style="stroke-width:0.26458332" /></text>
    <text
       xml:space="preserve"
       style="font-style:normal;font-weight:normal;font-size:225.74266052px;line-height:1.25;font-family:sans-serif;letter-spacing:0px;word-spacing:0px;fill:#000000;fill-opacity:1;stroke:none;stroke-width:0.26458326"
       x="73.96006"
       y="182.99292"
       id="text4545"
       transform="scale(1.1686722,0.85567191)"><tspan
         sodipodi:role="line"
         id="tspan4543"
         x="73.96006"
         y="182.99292"
         style="font-style:normal;font-variant:normal;font-weight:normal;font-stretch:normal;font-family:Roboto;-inkscape-font-specification:Roboto;stroke-width:0.26458326">r</tspan></text>
  </g>
</svg>
